<svg viewBox="0 0 115 115" fill="none"
	xmlns="http://www.w3.org/2000/svg" role="img" >
	<g class="butterfly">
	<path d="M62.0016 66.5905C63.7175 65.4318 66.0479 65.8835 67.2066 67.5994C68.3653 69.3153 67.9136 71.6457 66.1977 72.8044L45.1256 87.0338C43.4097 88.1925 41.0793 87.7408 39.9206 86.0248C38.7619 84.3089 39.2136 81.9785 40.9295 80.8198L62.0016 66.5905Z" fill="white"></path>
	<g class="back-wing">
		<path d="M22.701 47.2535C18.5265 50.0365 15.9045 56.2925 17.549 62.5715C19.688 70.7135 27.7955 74.4395 28.6005 74.796C35.6385 77.901 41.9175 75.624 46.184 73.715C49.8065 72.0935 58.558 68.8045 58.3855 63.4915C58.098 54.74 33.6835 39.9395 22.7125 47.2535H22.701Z" fill="#227432"></path>
		<path d="M53.935 64.308C56.787 62.813 60.8235 60.1795 64.147 55.6945C71.6335 45.586 72.8985 29.5665 66.7345 25.599C63.342 23.4255 58.581 25.438 52.2905 28.106C47.1155 30.3025 36.6275 34.868 33.695 45.08C28.152 64.377 53.935 64.308 53.935 64.308Z" fill="#227432"></path>
	</g>
	<path d="M64.9567 63.3003L71.9293 57.9924C73.8295 56.5459 76.5425 56.9137 77.989 58.8139C79.4354 60.714 79.0677 63.427 77.1675 64.8735L70.1949 70.1813C68.2948 71.6278 65.5818 71.26 64.1353 69.3599C62.6888 67.4597 63.0566 64.7467 64.9567 63.3003Z" fill="white"></path>
	<path d="M78.2 65.55C75.6595 65.55 73.6 62.9756 73.6 59.8C73.6 56.6244 75.6595 54.05 78.2 54.05C80.7405 54.05 82.8 56.6244 82.8 59.8C82.8 62.9756 80.7405 65.55 78.2 65.55Z" fill="white"></path>
	<path d="M81.65 56.81C81.65 56.81 89.3205 54.05 96.6 56.35" stroke="white" stroke-miterlimit="10" stroke-linecap="round"></path>
	<path d="M97.175 58.65C96.2223 58.65 95.45 57.8777 95.45 56.925C95.45 55.9723 96.2223 55.2 97.175 55.2C98.1277 55.2 98.9 55.9723 98.9 56.925C98.9 57.8777 98.1277 58.65 97.175 58.65Z" fill="white"></path>
	<path d="M80.063 54.602C80.063 54.602 85.928 48.944 93.518 48.07" stroke="white" stroke-miterlimit="10" stroke-linecap="round"></path>
	<path d="M94.277 50.0825C93.3243 50.0825 92.552 49.3102 92.552 48.3575C92.552 47.4048 93.3243 46.6325 94.277 46.6325C95.2297 46.6325 96.002 47.4048 96.002 48.3575C96.002 49.3102 95.2297 50.0825 94.277 50.0825Z" fill="white"></path>
	<g class="front-wing">
		<path d="M60.651 69C63.6065 67.7005 67.8155 65.3545 71.438 61.111C79.603 51.543 81.972 35.65 76.0955 31.2685C72.864 28.865 67.9765 30.544 61.5135 32.7635C56.2005 34.592 45.425 38.433 41.791 48.415C34.9255 67.275 60.651 69 60.651 69Z" fill="#48B85E"></path>
		<path d="M25.001 51.8535C20.8265 54.6365 18.2045 60.8925 19.849 67.1715C21.988 75.3135 30.0955 79.0395 30.9005 79.396C37.9385 82.501 44.2175 80.224 48.484 78.315C52.1065 76.6935 60.858 73.4045 60.6855 68.0915C60.398 59.34 35.9835 44.5395 25.0125 51.8535H25.001Z" fill="#60DA78"></path>
	</g>
	</g>
</svg>