<svg viewBox="0 0 206 357" fill="none"
	xmlns="http://www.w3.org/2000/svg" role="img">
	<g class="right-arm">
	<path  d="M220.281 158.541C221.131 157.901 221.838 157.029 222.294 155.974C231.263 135.173 236.933 104.697 229.394 83.5018C228.201 80.1529 224.525 78.3854 221.189 79.5598C217.844 80.7419 216.112 84.4059 217.305 87.7548C221.745 100.221 221.507 125.278 210.504 150.81C209.104 154.062 210.603 157.859 213.858 159.282C216.065 160.251 218.501 159.884 220.292 158.534L220.281 158.541Z" fill="#EF4973"></path>
	<path d="M230.033 104.165C230.667 103.687 231.229 103.069 231.659 102.341C233.479 99.3051 232.48 95.3412 229.428 93.5072L216.173 85.5065C213.131 83.6648 209.191 84.6329 207.368 87.6868C205.549 90.7227 206.547 94.6866 209.599 96.5207L222.854 104.521C225.177 105.92 228.007 105.693 230.033 104.165Z" fill="#EF4973"></path>
	</g>
	<g class="left-arm">
	<path d="M149.892 211.616C151.672 210.273 152.705 208.025 152.381 205.636C151.908 202.115 148.67 199.63 145.158 200.081C117.584 203.636 93.4467 196.976 82.6647 189.275C79.7731 187.207 75.7563 187.861 73.7174 190.755C71.6707 193.639 72.3588 197.659 75.2504 199.728C93.5438 212.814 124.414 215.738 146.88 212.837C148.02 212.688 149.042 212.256 149.902 211.608L149.892 211.616Z" fill="#EF4973"></path>
	<path d="M94.9417 206.025C96.9677 204.497 97.9649 201.839 97.2591 199.221L93.2132 184.277C92.2793 180.846 88.761 178.798 85.3339 179.702C81.9067 180.606 79.8817 184.136 80.8156 187.567L84.8615 202.512C85.7954 205.943 89.3137 207.991 92.7408 207.087C93.5592 206.873 94.3072 206.503 94.9417 206.025Z" fill="#EF4973"></path>
	<path d="M98.3095 207.234C100.489 205.59 101.441 202.659 100.465 199.939C99.2641 196.579 95.5856 194.83 92.2499 196.004L76.087 201.73C72.7411 202.912 71.0176 206.586 72.2106 209.935C73.4113 213.294 77.0896 215.044 80.4253 213.869L96.5882 208.144C97.2241 207.923 97.7901 207.609 98.3017 207.223L98.3095 207.234Z" fill="#EF4973"></path>
	</g>
	<path d="M232.847 291.026C233.778 290.323 234.523 289.374 234.946 288.232C235.501 287.457 237.414 285.417 239.815 283.898C241.505 282.818 242.663 281.055 242.963 279.069C243.271 277.092 242.704 275.064 241.421 273.511C236.936 268.138 217.66 234.761 214.266 226.513C212.909 223.223 209.154 221.628 205.878 222.967C202.603 224.306 201.034 228.058 202.391 231.348C205.722 239.449 220.33 265.038 228.039 276.752C225.647 278.944 223.368 281.647 222.707 284.262C221.833 287.7 223.921 291.214 227.368 292.104C229.336 292.606 231.325 292.157 232.829 291.023L232.847 291.026Z" fill="#EF4973"></path>
	<path d="M180.477 145.278C182.503 143.751 183.503 141.075 182.787 138.465C178.789 123.839 174.979 92.8378 176.416 78.8638C176.781 75.3252 174.215 72.1557 170.68 71.7678C167.153 71.3902 163.997 73.9313 163.632 77.4699C161.854 94.8023 166.528 127.673 170.392 141.801C171.326 145.232 174.865 147.265 178.284 146.35C179.095 146.127 179.832 145.764 180.467 145.286L180.477 145.278Z" fill="#EF4973"></path>
	<path d="M148.121 169.675C148.755 169.197 149.307 168.587 149.745 167.869C151.564 164.833 150.584 160.872 147.542 159.03C135.014 151.418 104.697 137.883 87.552 134.835C84.0495 134.213 80.7382 136.548 80.1311 140.042C79.5318 143.547 81.8833 146.879 85.3756 147.509C99.2135 149.981 127.973 162.154 140.925 170.029C143.237 171.435 146.085 171.21 148.111 169.683L148.121 169.675Z" fill="#EF4973"></path>
	<path d="M224.202 237.177C198.957 256.212 161.847 249.566 141.313 222.333C120.779 195.1 124.597 157.592 149.842 138.558C175.086 119.523 212.197 126.169 232.731 153.402C253.265 180.635 249.446 218.143 224.202 237.177Z" fill="#EF4973"></path>
	<path d="M189.064 240.309C182.181 241.987 175.353 238.332 173.814 232.144C172.275 225.956 176.607 219.58 183.49 217.901C190.373 216.223 197.201 219.879 198.74 226.066C200.28 232.254 195.948 238.631 189.064 240.309Z" fill="#F388AC"></path>
	<path d="M214.543 230.629C210.041 231.727 205.576 229.336 204.569 225.289C203.562 221.242 206.396 217.072 210.897 215.974C215.399 214.876 219.864 217.267 220.871 221.314C221.878 225.361 219.045 229.531 214.543 230.629Z" fill="#F388AC"></path>
	<path d="M152.312 176.724C153.774 176.236 155.181 175.676 156.552 175.046C160.683 173.159 164.363 170.675 167.242 167.745C170.963 163.953 173.327 159.425 173.482 154.479C183.001 161.952 187.686 171.423 188.156 178.645C188.415 182.714 187.34 186.077 185.018 187.957C184.573 188.325 184.066 188.675 183.516 189.009C176.227 193.455 160.842 194.636 152.323 176.716L152.312 176.724Z" fill="black"></path>
	<path d="M165.518 180.465L156.57 175.048C160.701 173.161 164.381 170.677 167.26 167.747L171.933 175.03L165.528 180.457L165.518 180.465Z" fill="#F3C52B"></path>
	<path d="M185.685 176.049L188.146 178.652C188.405 182.722 187.33 186.085 185.008 187.965C184.563 188.333 184.056 188.682 183.506 189.017C182.463 185.441 180.992 180.234 181.088 180C181.246 179.655 185.685 176.049 185.685 176.049Z" fill="#F3C52B"></path>
	<path d="M187.853 93.9054C175.143 103.489 157.021 100.888 147.375 88.096C137.73 75.3042 140.215 57.1656 152.924 47.5823C165.634 37.999 183.756 40.6 193.402 53.3918C203.047 66.1836 200.562 84.3221 187.853 93.9054Z" fill="#EF4973"></path>
	<path d="M183.256 87.8087C173.891 94.8694 160.539 92.953 153.433 83.5284C146.327 74.1038 148.157 60.7398 157.521 53.6791C166.886 46.6184 180.238 48.5347 187.344 57.9593C194.45 67.3839 192.62 80.748 183.256 87.8087Z" fill="white"></path>
	<path d="M179.645 83.0193C172.909 88.0985 163.304 86.7199 158.192 79.9401C153.08 73.1603 154.396 63.5467 161.133 58.4674C167.869 53.3881 177.474 54.7666 182.586 61.5464C187.698 68.3263 186.382 77.94 179.645 83.0193Z" fill="black"></path>
	<path d="M170.641 68.5018C168.827 69.8696 166.24 69.4983 164.864 67.6725C163.487 65.8468 163.842 63.2579 165.656 61.8901C167.47 60.5222 170.056 60.8934 171.433 62.7192C172.81 64.545 172.455 67.1339 170.641 68.5018Z" fill="white"></path>
	<path d="M176.057 81.9442C175.046 82.707 173.603 82.5 172.836 81.4819C172.068 80.4638 172.266 79.0201 173.278 78.2573C174.289 77.4946 175.732 77.7016 176.499 78.7197C177.267 79.7378 177.069 81.1815 176.057 81.9442Z" fill="white"></path>
	<path d="M99.2996 160.675C86.5898 170.259 68.4676 167.658 58.8225 154.866C49.1773 142.074 51.6617 123.935 64.3715 114.352C77.0813 104.769 95.2036 107.37 104.849 120.162C114.494 132.953 112.009 151.092 99.2996 160.675Z" fill="#EF4973"></path>
	<path d="M94.7026 154.578C85.3384 161.639 71.9865 159.723 64.8803 150.298C57.774 140.874 59.6044 127.51 68.9686 120.449C78.3328 113.388 91.6848 115.304 98.7911 124.729C105.897 134.154 104.067 147.518 94.7026 154.578Z" fill="white"></path>
	<path d="M91.0923 149.789C84.356 154.868 74.751 153.49 69.639 146.71C64.527 139.93 65.8436 130.316 72.58 125.237C79.3163 120.158 88.9214 121.536 94.0335 128.316C99.1455 135.096 97.8287 144.71 91.0923 149.789Z" fill="black"></path>
	<path d="M82.0882 135.271C80.2741 136.639 77.6874 136.268 76.3108 134.442C74.9341 132.617 75.2888 130.028 77.1029 128.66C78.917 127.292 81.5035 127.663 82.8802 129.489C84.2568 131.315 83.9023 133.904 82.0882 135.271Z" fill="white"></path>
	<path d="M87.5046 148.714C86.493 149.477 85.0508 149.27 84.2831 148.252C83.5154 147.233 83.7131 145.79 84.7247 145.027C85.7362 144.264 87.1786 144.471 87.9463 145.489C88.714 146.508 88.5162 147.951 87.5046 148.714Z" fill="white"></path>
</svg>